<svg xmlns="http://www.w3.org/2000/svg" viewBox="0 0 1200 560" role="img" aria-labelledby="title desc">
  <title id="title">An example workflow across the skills</title>
  <desc id="desc">A sample flow. Groundwork uses new-idea and project-init. Build is a fresh build or a new branch. When the six confidence checks pass (check-diff, check-work, check-code, check-sec, check-performance, check-polish), repo-polisher tidies the repository, check-release gates the ship, then Release. The skills are independent and no order is required.</desc>
  <style>
    text { font-family: Inter, ui-sans-serif, system-ui, sans-serif; fill: #20232a; text-anchor: middle; }
    .step, .skill { font-weight: 600; font-size: 16px; }
    .detail { font-weight: 400; font-size: 13px; fill: #5d6470; }
    .sub { font-weight: 400; font-size: 14px; fill: #5d6470; }
    .group { font-weight: 700; font-size: 12px; fill: #5d6470; letter-spacing: 0.08em; }
    .node { stroke-width: 2; }
    .idea { fill: #f4f4f5; stroke: #71717a; }
    .start { fill: #eeeafd; stroke: #6d5dfc; }
    .build { fill: #eaf2ff; stroke: #3974c6; }
    .check { fill: #e7f6f1; stroke: #167d68; }
    .gate { fill: #fff2df; stroke: #c47716; }
    .release { fill: #e9f1ff; stroke: #3974c6; }
    .polish { fill: #fce7ce; stroke: #c47716; }
    .n-idea { fill: #52525b; }
    .n-start { fill: #5b4ee0; }
    .n-build { fill: #2f63b0; }
    .n-check { fill: #12705d; }
    .n-gate { fill: #a5620f; }
    .n-release { fill: #2f63b0; }
    .n-polish { fill: #a5620f; }
    .edge { fill: none; stroke: #737a86; stroke-width: 2; marker-end: url(#arrow); }
    .branch { fill: none; stroke: #737a86; stroke-width: 2; }
    @media (prefers-color-scheme: dark) {
      text { fill: #f2f3f5; }
      .detail, .group, .sub { fill: #bcc1ca; }
      .idea { fill: #292a2f; stroke: #a1a1aa; }
      .start { fill: #302a50; stroke: #9b8cff; }
      .build, .release { fill: #203555; stroke: #73a7ee; }
      .check { fill: #193d35; stroke: #46b596; }
      .gate, .polish { fill: #4a351b; stroke: #e1a34d; }
      .n-idea { fill: #d4d4d8; }
      .n-start { fill: #b3a6ff; }
      .n-build, .n-release { fill: #8fbaf0; }
      .n-check { fill: #5cc7a8; }
      .n-gate, .n-polish { fill: #eab866; }
      .edge, .branch { stroke: #aeb4bd; }
    }
  </style>
  <defs>
    <marker id="arrow" markerWidth="9" markerHeight="9" refX="8" refY="4.5" orient="auto">
      <path d="M0 0L9 4.5L0 9Z" fill="#737a86"/>
    </marker>
  </defs>

  <text class="sub" x="600" y="22">An example flow. The skills are independent, so pull in only what a moment needs.</text>

  <text class="group" x="284" y="46">GROUNDWORK</text>
  <text class="group" x="663" y="46">BUILD</text>

  <path class="edge" d="M170 108H196"/>
  <path class="edge" d="M356 108H382"/>
  <path class="edge" d="M542 108H568"/>

  <rect class="node idea" x="40" y="58" width="130" height="100" rx="12"/>
  <text x="105" y="100"><tspan class="step n-idea" x="105">Idea</tspan><tspan class="detail" x="105" dy="24">Goal, user, value</tspan></text>

  <rect class="node start" x="196" y="58" width="160" height="100" rx="12"/>
  <text x="276" y="100"><tspan class="skill n-start" x="276">$new-idea</tspan><tspan class="detail" x="276" dy="24">Pressure-test the idea</tspan></text>

  <rect class="node start" x="382" y="58" width="160" height="100" rx="12"/>
  <text x="462" y="100"><tspan class="skill n-start" x="462">$project-init</tspan><tspan class="detail" x="462" dy="24">Structure, tooling, Git</tspan></text>

  <rect class="node build" x="568" y="58" width="190" height="100" rx="12"/>
  <text x="663" y="100"><tspan class="step n-build" x="663">Build</tspan><tspan class="detail" x="663" dy="24">Fresh build or new branch</tspan></text>

  <path class="branch" d="M663 158V214"/>
  <path class="branch" d="M128 214H1072"/>
  <path class="edge" d="M128 214V250"/>
  <path class="edge" d="M316 214V250"/>
  <path class="edge" d="M505 214V250"/>
  <path class="edge" d="M694 214V250"/>
  <path class="edge" d="M883 214V250"/>
  <path class="edge" d="M1072 214V250"/>

  <text class="group" x="300" y="186">CONFIDENCE CHECKS</text>

  <rect class="node check" x="41" y="250" width="173" height="100" rx="12"/>
  <text x="128" y="292"><tspan class="skill n-check" x="128">$check-diff</tspan><tspan class="detail" x="128" dy="24">Regressions, hygiene</tspan></text>

  <rect class="node check" x="230" y="250" width="173" height="100" rx="12"/>
  <text x="316" y="292"><tspan class="skill n-check" x="316">$check-work</tspan><tspan class="detail" x="316" dy="24">Real user workflows</tspan></text>

  <rect class="node check" x="419" y="250" width="173" height="100" rx="12"/>
  <text x="505" y="292"><tspan class="skill n-check" x="505">$check-code</tspan><tspan class="detail" x="505" dy="24">Correct, reliable</tspan></text>

  <rect class="node check" x="608" y="250" width="173" height="100" rx="12"/>
  <text x="694" y="292"><tspan class="skill n-check" x="694">$check-sec</tspan><tspan class="detail" x="694" dy="24">Safe against threats</tspan></text>

  <rect class="node check" x="797" y="250" width="173" height="100" rx="12"/>
  <text x="883" y="292"><tspan class="skill n-check" x="883" style="font-size:15px">$check-performance</tspan><tspan class="detail" x="883" dy="24">Speed and scale</tspan></text>

  <rect class="node check" x="986" y="250" width="173" height="100" rx="12"/>
  <text x="1072" y="292"><tspan class="skill n-check" x="1072">$check-polish</tspan><tspan class="detail" x="1072" dy="24">Accessible, finished</tspan></text>

  <text class="detail" x="600" y="372">when checks pass</text>
  <path class="branch" d="M128 350V388"/>
  <path class="branch" d="M316 350V388"/>
  <path class="branch" d="M505 350V388"/>
  <path class="branch" d="M694 350V388"/>
  <path class="branch" d="M883 350V388"/>
  <path class="branch" d="M1072 350V388"/>
  <path class="branch" d="M128 388H1072"/>

  <text class="group" x="250" y="422">POLISH</text>
  <text class="group" x="520" y="422">SHIP</text>

  <path class="edge" d="M335 388V430"/>

  <rect class="node polish" x="230" y="430" width="210" height="96" rx="12"/>
  <text x="335" y="470"><tspan class="skill n-polish" x="335">$repo-polisher</tspan><tspan class="detail" x="335" dy="24">README, badges, metadata</tspan></text>

  <path class="edge" d="M440 478H490"/>
  <rect class="node gate" x="490" y="430" width="300" height="96" rx="12"/>
  <text x="640" y="470"><tspan class="skill n-gate" x="640">$check-release</tspan><tspan class="detail" x="640" dy="24">Docs, build, install, signing</tspan></text>

  <path class="edge" d="M790 478H840"/>
  <rect class="node release" x="840" y="430" width="200" height="96" rx="12"/>
  <text x="940" y="470"><tspan class="step n-release" x="940">Release</tspan><tspan class="detail" x="940" dy="24">Ship with evidence</tspan></text>
</svg>

